PathFileType	4	(X/Y/Z)	3_coords_data.trc
DataRate	CameraRate	NumFrames	NumMarkers	Units	OrigDataRate	OrigDataStartFrame	OrigNumFrames
30.0	30.0	5	21	m	30.0	32	62
Frame#	Time	THUMB_TIP	THUMB_IP	THUMB_MCP	THUMB_CMC	INDEX_TIP	INDEX_DIP	INDEX_PIP	INDEX_MCP	MIDDLE_TIP	MIDDLE_DIP	MIDDLE_PIP	MIDDLE_MCP	RING_TIP	RING_DIP	RING_PIP	RING_MCP	PINKY_TIP	PINKY_DIP	PINKY_PIP	PINKY_MCP	WRIST
X1	Y1	Z1	X2	Y2	Z2	X3	Y3	Z3	X4	Y4	Z4	X5	Y5	Z5	X6	Y6	Z6	X7	Y7	Z7	X8	Y8	Z8	X9	Y9	Z9	X10	Y10	Z10	X11	Y11	Z11	X12	Y12	Z12	X13	Y13	Z13	X14	Y14	Z14	X15	Y15	Z15	X16	Y16	Z16	X17	Y17	Z17	X18	Y18	Z18	X19	Y19	Z19	X20	Y20	Z20	X21	Y21	Z21
30	1.0333333333333288	0.5397223754924297	-0.02551075362492325	-0.12191602004872854	0.518840740301812	-0.023160562023329917	-0.13121300403288988	0.49060250824391083	-0.020147698585090967	-0.11847154006101268	0.4724186834064532	-0.027496635185654206	-0.07840619786702208	0.567584699127526	0.03314604362096768	-0.1637711841472031	0.553319677906331	0.03379612214244565	-0.15263176910534515	0.5336411110869601	0.03407389726023663	-0.13698930504371176	0.5012829791604688	0.022089898826818888	-0.11202991455084066	0.5324065430318823	-0.016045238095247216	-0.1258968659665738	0.5474078883174697	-0.007211210733658879	-0.1308888195117598	0.5497862868142095	0.020457018312440456	-0.12204450653429838	0.5142265090914683	0.022724733279824827	-0.09509070164267064	0.5464653077276689	-0.020954058248396218	-0.11568443703235615	0.5604859153865228	-0.009743524671332576	-0.11402718092842495	0.5623955189113986	0.011226901829284708	-0.10073151976547434	0.5276466062608988	0.01364670526096523	-0.0802040149253831	0.602352493224718	-0.006949347268718625	-0.09081779671089851	0.5870239686332199	-0.00460323373808888	-0.08356989459033726	0.5674212056133677	-0.0031227564516855544	-0.07619752129593893	0.532408851678453	-0.006353134734607607	-0.0681611552586372	0.462283081001861	-0.023011742144276925	-0.051989820119430985
31	1.0666666666666622	0.5388620523106642	-0.02659758646956631	-0.12505891647062484	0.5173908423948109	-0.023579927881484136	-0.13266686503742925	0.48968747536119994	-0.020397363320460743	-0.11883882331721618	0.472238519177282	-0.027699321843720343	-0.0784394999340664	0.5669749567930608	0.02434935358039861	-0.1650061060094028	0.5533142720979378	0.027889557367790224	-0.15365477785785286	0.5341089282183831	0.031445717256971234	-0.13782700712693075	0.5014345655382896	0.02144705536792771	-0.11240951555363993	0.5350480190057715	-0.01747451043282397	-0.12785739593324058	0.5492463329690473	-0.0070308114138017686	-0.13202117203196634	0.5502252432256399	0.02044634359637107	-0.12235384369077118	0.5145393114998346	0.021961006179207182	-0.09551417165251197	0.5493138468043905	-0.02169812736414356	-0.11747611146182102	0.5621764747268062	-0.009381373648301772	-0.11467425835489492	0.5627038852846337	0.011446490210144517	-0.10103234118033616	0.5278448014419023	0.012974909863049694	-0.08060615600027776	0.6013208272066768	-0.009817498054064927	-0.09275707326621435	0.5866221775579562	-0.006449059488685044	-0.0846574856140293	0.567467350032694	-0.0039432553087255795	-0.0764340102605578	0.5325344134128919	-0.0065917410271309484	-0.06785736094300387	0.4622830810018609	-0.023011742144276925	-0.051989820119430985
32	1.0999999999999952	0.5376656631866675	-0.02801339310961326	-0.12866590404739997	0.5157110953998921	-0.02421343535006909	-0.13428349021243213	0.4886480924820077	-0.020916390265234314	-0.1192653889085008	0.4720644829455092	-0.02795769133176096	-0.0784573753078428	0.5656418354680178	0.014517809424968858	-0.16566934208862616	0.5530832561471685	0.021202094297191137	-0.15446209348832646	0.534673004053072	0.02808008214852789	-0.13878517625474118	0.5017248519453331	0.020544523810822973	-0.11287628343346567	0.5383820058144663	-0.01911545013370089	-0.13021419929762473	0.5515101024429616	-0.007022908343190831	-0.13328397322377206	0.5508062549391229	0.02015465892102017	-0.1227818788473809	0.5149765114107693	0.020865825844642777	-0.09610095605038688	0.5527600213979059	-0.022420897540233742	-0.11937336635845625	0.5641993341152969	-0.00906708454849664	-0.11539620617366958	0.563205755092047	0.01155091039872233	-0.1014645492700198	0.5282053818335598	0.011799437578013355	-0.08122515846871992	0.5999921191793413	-0.013074679940533379	-0.09480430400334633	0.5860989366109343	-0.008598396781642093	-0.08586325444513798	0.5675265308080216	-0.004950393129893815	-0.07677646012322392	0.5327087917178807	-0.007115179837421021	-0.06761555437314704	0.4622830810018609	-0.023011742144276925	-0.051989820119430985
33	1.1333333333333284	0.5360884204914061	-0.029792877708880255	-0.13249679002864723	0.5138563189470295	-0.02514856427373191	-0.13598448463061968	0.4875495779083079	-0.02169226332981747	-0.11971090605346807	0.47191799281327895	-0.02826624574587097	-0.07845164887874073	0.5635488434802673	0.004330317191602567	-0.16575649849480317	0.5525384631643638	0.014030431967355927	-0.155141447923262	0.5352596801998405	0.024053241172037942	-0.13987721561660987	0.5021723919526768	0.019239358859092004	-0.11350120402413788	0.5423801622268314	-0.020863439184046484	-0.13283706398474016	0.5540691184327923	-0.007152268484865165	-0.1346733920798902	0.5515418741241565	0.0195321470661875	-0.12322941755601047	0.5155495690247225	0.019486034630953553	-0.09675868337139465	0.5563901143179366	-0.02309213698939594	-0.12102427398869758	0.5663306377424607	-0.008905306401381402	-0.11603229723459851	0.5637159300312067	0.01143637473611242	-0.1019057516170302	0.5286258593925829	0.01044828717200802	-0.08184505722371338	0.5983849000103988	-0.016703584081796535	-0.09687173670812571	0.5854948416294836	-0.011042833148935394	-0.0871350897589594	0.5675981365050848	-0.006284217445363588	-0.07724188293427214	0.532934157351181	-0.007942014913228185	-0.06741621716684121	0.4622830810018609	-0.023011742144276925	-0.051989820119430985
34	1.1666666666666616	0.534176229385691	-0.03186327796942984	-0.13631685498714063	0.5119166113059405	-0.026314112204991108	-0.13762687875121027	0.4864581237597623	-0.02267482400244536	-0.12009288339248214	0.471704577036857	-0.028728556242554604	-0.07843264833481461	0.5607758509072303	-0.005842663720949159	-0.16523543691269393	0.5517128416876415	0.00652306251270085	-0.15559434368629743	0.5358111604016995	0.019418393500570452	-0.14100473080611386	0.5027446643959286	0.01759706317161197	-0.11422926271061373	0.546714471448907	-0.022816520793221162	-0.1357545587969296	0.5567935632096666	-0.007776857509098123	-0.13622406660132624	0.552386931003764	0.01827416454957409	-0.12392222152424615	0.5162394004328387	0.017601627636570638	-0.09767242821601863	0.5599503712945316	-0.024189577789047234	-0.12246846271467499	0.5682869193360938	-0.009298158368446774	-0.11665919474095487	0.5642659778183072	0.010766410237379509	-0.10246676383667946	0.5291163329567875	0.008759076598060633	-0.08258727914090547	0.5965315286433082	-0.020799364075096582	-0.09894137320238466	0.5847818072648847	-0.013964440354168939	-0.08853811096121633	0.5676500492247496	-0.008103393356882732	-0.07790970498713612	0.5331821888275464	-0.009060149989962796	-0.06732978686911717	0.4622830810018608	-0.023011742144276925	-0.051989820119430985
